<?xml version="1.0" encoding="UTF-8" standalone="no"?>
<!DOCTYPE svg PUBLIC "-//W3C//DTD SVG 1.1//EN" "http://www.w3.org/Graphics/SVG/1.1/DTD/svg11.dtd">
<svg width="100%" height="100%" viewBox="0 0 3508 2481" version="1.1" xmlns="http://www.w3.org/2000/svg" xmlns:xlink="http://www.w3.org/1999/xlink" xml:space="preserve" xmlns:serif="http://www.serif.com/" style="fill-rule:evenodd;clip-rule:evenodd;stroke-linejoin:round;stroke-miterlimit:2;">
    <g transform="matrix(1.732877,0,0,1.732877,-2376.641007,-2279.582721)">
        <g transform="matrix(0.487634,0,0,0.487634,1653.907711,1045.234737)">
            <g transform="matrix(1.336497,0,-0.554109,1.955684,1010.878774,-66.850547)">
                <path d="M1515.721,883.418L1439.856,1239.561L1378.434,1239.561L1464.306,836.441L1528.183,836.441L1769.528,1068.011L1723.188,956.239L1810.418,956.239L1914.382,1206.997L1948.321,1239.561L1948.181,1239.561L2134.818,1418.638L2073.396,1418.638L1653.258,1015.518L1653.397,1015.518L1515.721,883.418Z" style="fill:white;"/>
            </g>
            <g transform="matrix(1,0,-0.421593,1,754.475564,0)">
                <path d="M216.365,2357C199.214,2357 183.551,2352.832 169.377,2344.495C155.203,2336.158 143.947,2324.903 135.611,2310.729C127.274,2296.554 123.106,2280.892 123.106,2263.741L123.106,1934.615C123.106,1917.464 127.274,1901.802 135.611,1887.628C143.947,1873.453 155.203,1862.198 169.377,1853.861C183.551,1845.525 199.214,1841.356 216.365,1841.356L637.317,1841.356L637.317,1918.96L226.816,1918.96C219.177,1918.96 212.873,1921.402 207.905,1926.284C202.936,1931.167 200.452,1937.514 200.452,1945.324L200.452,2253.032C200.452,2260.671 202.936,2266.975 207.905,2271.943C212.873,2276.912 219.177,2279.396 226.816,2279.396L637.317,2279.396L637.317,2357L216.365,2357Z" style="fill:white;fill-rule:nonzero;"/>
                <path d="M712.515,2357L712.515,1841.356L789.862,1841.356L789.862,2060.147L1162.461,2060.147L1162.461,1841.356L1240.266,1841.356L1240.266,2357L1162.461,2357L1162.461,2138.21L789.862,2138.21L789.862,2357L712.515,2357Z" style="fill:white;fill-rule:nonzero;"/>
                <path d="M1322.693,2357L1322.693,1934.615C1322.693,1917.554 1326.862,1901.914 1335.198,1887.695C1343.535,1873.476 1354.813,1862.198 1369.032,1853.861C1383.251,1845.525 1398.891,1841.356 1415.952,1841.356L1744.821,1841.356C1761.882,1841.356 1777.522,1845.525 1791.741,1853.861C1805.96,1862.198 1817.281,1873.476 1825.703,1887.695C1834.126,1901.914 1838.337,1917.554 1838.337,1934.615L1838.337,2357L1760.465,2357L1760.465,2176.749L1400.04,2176.749L1400.04,2357L1322.693,2357ZM1400.04,2099.145L1760.465,2099.145L1760.465,1936.708C1760.465,1931.851 1758.721,1927.679 1755.233,1924.192C1751.746,1920.704 1747.577,1918.96 1742.728,1918.96L1417.776,1918.96C1412.927,1918.96 1408.759,1920.704 1405.271,1924.192C1401.784,1927.679 1400.04,1931.851 1400.04,1936.708L1400.04,2099.145Z" style="fill:white;fill-rule:nonzero;"/>
                <path d="M2113.448,2357L2113.448,1918.96L1894.198,1918.96L1894.198,1841.356L2409.842,1841.356L2409.842,1918.96L2191.052,1918.96L2191.052,2357L2113.448,2357Z" style="fill:white;fill-rule:nonzero;"/>
            </g>
        </g>
    </g>
</svg>
